<mxfile host="app.diagrams.net" modified="2023-01-27T02:09:45.282Z" agent="5.0 (Windows NT 10.0; Win64; x64) AppleWebKit/537.36 (KHTML, like Gecko) Chrome/109.0.0.0 Safari/537.36 Edg/109.0.1518.55" etag="wtqDaNZYRveYFrP-eFNN" version="20.8.11" type="github">
  <diagram name="Page-1" id="F5PIa3yW_Zm4oQG5kCMX">
    <mxGraphModel dx="2049" dy="704" grid="1" gridSize="10" guides="1" tooltips="1" connect="1" arrows="1" fold="1" page="1" pageScale="1" pageWidth="850" pageHeight="1100" math="0" shadow="0">
      <root>
        <mxCell id="0" />
        <mxCell id="1" parent="0" />
        <mxCell id="Je_-mswI8z7TKhdXFUyh-1" value="" style="endArrow=none;dashed=1;html=1;rounded=0;fillColor=#dae8fc;strokeColor=#6c8ebf;strokeWidth=3;" edge="1" parent="1">
          <mxGeometry width="50" height="50" relative="1" as="geometry">
            <mxPoint x="40" y="240" as="sourcePoint" />
            <mxPoint x="800" y="240" as="targetPoint" />
          </mxGeometry>
        </mxCell>
        <mxCell id="Je_-mswI8z7TKhdXFUyh-2" value="" style="endArrow=none;dashed=1;html=1;rounded=0;strokeWidth=3;" edge="1" parent="1">
          <mxGeometry width="50" height="50" relative="1" as="geometry">
            <mxPoint x="40" y="330" as="sourcePoint" />
            <mxPoint x="400" y="330" as="targetPoint" />
          </mxGeometry>
        </mxCell>
        <mxCell id="Je_-mswI8z7TKhdXFUyh-3" value="" style="endArrow=none;dashed=1;html=1;rounded=0;strokeWidth=3;" edge="1" parent="1">
          <mxGeometry width="50" height="50" relative="1" as="geometry">
            <mxPoint x="402" y="620" as="sourcePoint" />
            <mxPoint x="402" y="240" as="targetPoint" />
          </mxGeometry>
        </mxCell>
        <mxCell id="Je_-mswI8z7TKhdXFUyh-4" value="&lt;b&gt;DISPATCH&lt;/b&gt;" style="text;html=1;strokeColor=none;fillColor=none;align=center;verticalAlign=middle;whiteSpace=wrap;rounded=0;" vertex="1" parent="1">
          <mxGeometry x="580" y="210" width="60" height="30" as="geometry" />
        </mxCell>
        <mxCell id="Je_-mswI8z7TKhdXFUyh-5" value="&lt;b&gt;ENTERPRISE&lt;/b&gt;" style="text;html=1;strokeColor=none;fillColor=none;align=center;verticalAlign=middle;whiteSpace=wrap;rounded=0;" vertex="1" parent="1">
          <mxGeometry x="150" y="210" width="60" height="30" as="geometry" />
        </mxCell>
        <mxCell id="Je_-mswI8z7TKhdXFUyh-15" value="CIM PROC EX" style="edgeStyle=orthogonalEdgeStyle;rounded=0;orthogonalLoop=1;jettySize=auto;html=1;strokeWidth=3;" edge="1" parent="1" source="Je_-mswI8z7TKhdXFUyh-6">
          <mxGeometry x="0.0087" relative="1" as="geometry">
            <mxPoint x="110" y="272.5" as="targetPoint" />
            <mxPoint as="offset" />
          </mxGeometry>
        </mxCell>
        <mxCell id="Je_-mswI8z7TKhdXFUyh-18" value="QUIC" style="edgeStyle=orthogonalEdgeStyle;rounded=0;orthogonalLoop=1;jettySize=auto;html=1;strokeWidth=3;entryX=1;entryY=0.5;entryDx=0;entryDy=0;entryPerimeter=0;" edge="1" parent="1" source="Je_-mswI8z7TKhdXFUyh-6" target="Je_-mswI8z7TKhdXFUyh-20">
          <mxGeometry relative="1" as="geometry">
            <mxPoint x="240" y="160" as="targetPoint" />
          </mxGeometry>
        </mxCell>
        <mxCell id="Je_-mswI8z7TKhdXFUyh-6" value="ACT _ DOCKER" style="verticalLabelPosition=bottom;html=1;verticalAlign=top;align=center;strokeColor=none;fillColor=#00BEF2;shape=mxgraph.azure.computer;pointerEvents=1;" vertex="1" parent="1">
          <mxGeometry x="225" y="250" width="50" height="45" as="geometry" />
        </mxCell>
        <mxCell id="Je_-mswI8z7TKhdXFUyh-37" style="edgeStyle=orthogonalEdgeStyle;rounded=0;orthogonalLoop=1;jettySize=auto;html=1;entryX=0.822;entryY=0.002;entryDx=0;entryDy=0;entryPerimeter=0;strokeWidth=3;" edge="1" parent="1" source="Je_-mswI8z7TKhdXFUyh-7" target="Je_-mswI8z7TKhdXFUyh-33">
          <mxGeometry relative="1" as="geometry">
            <Array as="points">
              <mxPoint x="480" y="43" />
              <mxPoint x="480" y="220" />
              <mxPoint x="381" y="220" />
            </Array>
          </mxGeometry>
        </mxCell>
        <mxCell id="Je_-mswI8z7TKhdXFUyh-7" value="" style="sketch=0;aspect=fixed;pointerEvents=1;shadow=0;dashed=0;html=1;strokeColor=none;labelPosition=center;verticalLabelPosition=bottom;verticalAlign=top;align=center;fillColor=#00188D;shape=mxgraph.azure.computer" vertex="1" parent="1">
          <mxGeometry x="410" y="20" width="50" height="45" as="geometry" />
        </mxCell>
        <mxCell id="Je_-mswI8z7TKhdXFUyh-9" value="" style="endArrow=none;dashed=1;html=1;rounded=0;fillColor=#f8cecc;strokeColor=#b85450;strokeWidth=3;" edge="1" parent="1">
          <mxGeometry width="50" height="50" relative="1" as="geometry">
            <mxPoint x="45" y="90" as="sourcePoint" />
            <mxPoint x="805" y="90" as="targetPoint" />
          </mxGeometry>
        </mxCell>
        <mxCell id="Je_-mswI8z7TKhdXFUyh-10" value="" style="verticalAlign=top;verticalLabelPosition=bottom;labelPosition=center;align=center;html=1;outlineConnect=0;fillColor=#f8cecc;strokeColor=#b85450;gradientDirection=north;strokeWidth=2;shape=mxgraph.networks.comm_link;rotation=30;" vertex="1" parent="1">
          <mxGeometry x="240" y="237.5" width="20" height="70" as="geometry" />
        </mxCell>
        <mxCell id="Je_-mswI8z7TKhdXFUyh-14" style="edgeStyle=orthogonalEdgeStyle;rounded=0;orthogonalLoop=1;jettySize=auto;html=1;entryX=1;entryY=0.5;entryDx=0;entryDy=0;entryPerimeter=0;strokeWidth=3;" edge="1" parent="1" source="Je_-mswI8z7TKhdXFUyh-11" target="Je_-mswI8z7TKhdXFUyh-6">
          <mxGeometry relative="1" as="geometry" />
        </mxCell>
        <mxCell id="Je_-mswI8z7TKhdXFUyh-11" value="" style="sketch=0;aspect=fixed;pointerEvents=1;shadow=0;dashed=0;html=1;labelPosition=center;verticalLabelPosition=bottom;verticalAlign=top;align=center;shape=mxgraph.azure.computer;fillColor=#f5f5f5;fontColor=#333333;strokeColor=#3B3B3B;" vertex="1" parent="1">
          <mxGeometry x="370" y="120" width="50" height="45" as="geometry" />
        </mxCell>
        <mxCell id="Je_-mswI8z7TKhdXFUyh-12" value="DISPATCH SERVER&amp;nbsp;" style="verticalLabelPosition=bottom;html=1;verticalAlign=top;align=center;strokeColor=none;fillColor=#00BEF2;shape=mxgraph.azure.computer;pointerEvents=1;" vertex="1" parent="1">
          <mxGeometry x="490" y="262.5" width="50" height="45" as="geometry" />
        </mxCell>
        <mxCell id="Je_-mswI8z7TKhdXFUyh-13" value="" style="endArrow=none;dashed=1;html=1;rounded=0;strokeWidth=3;" edge="1" parent="1">
          <mxGeometry width="50" height="50" relative="1" as="geometry">
            <mxPoint x="400" y="440" as="sourcePoint" />
            <mxPoint x="800" y="440" as="targetPoint" />
          </mxGeometry>
        </mxCell>
        <mxCell id="Je_-mswI8z7TKhdXFUyh-26" style="edgeStyle=orthogonalEdgeStyle;rounded=0;orthogonalLoop=1;jettySize=auto;html=1;entryX=0.5;entryY=0;entryDx=0;entryDy=0;entryPerimeter=0;strokeWidth=3;" edge="1" parent="1" source="Je_-mswI8z7TKhdXFUyh-16" target="Je_-mswI8z7TKhdXFUyh-22">
          <mxGeometry relative="1" as="geometry" />
        </mxCell>
        <mxCell id="Je_-mswI8z7TKhdXFUyh-16" value="DMZ WINDOS" style="verticalLabelPosition=bottom;html=1;verticalAlign=top;align=center;strokeColor=none;fillColor=#00BEF2;shape=mxgraph.azure.computer;pointerEvents=1;" vertex="1" parent="1">
          <mxGeometry x="60" y="250" width="50" height="45" as="geometry" />
        </mxCell>
        <mxCell id="Je_-mswI8z7TKhdXFUyh-19" value="" style="verticalLabelPosition=bottom;html=1;verticalAlign=top;align=center;strokeColor=none;fillColor=#00BEF2;shape=mxgraph.azure.computer;pointerEvents=1;" vertex="1" parent="1">
          <mxGeometry x="160" y="20" width="50" height="45" as="geometry" />
        </mxCell>
        <mxCell id="Je_-mswI8z7TKhdXFUyh-21" style="edgeStyle=orthogonalEdgeStyle;rounded=0;orthogonalLoop=1;jettySize=auto;html=1;entryX=1;entryY=0.5;entryDx=0;entryDy=0;entryPerimeter=0;strokeWidth=3;" edge="1" parent="1" source="Je_-mswI8z7TKhdXFUyh-20" target="Je_-mswI8z7TKhdXFUyh-19">
          <mxGeometry relative="1" as="geometry" />
        </mxCell>
        <mxCell id="Je_-mswI8z7TKhdXFUyh-20" value="MERLIN" style="verticalLabelPosition=bottom;html=1;verticalAlign=top;align=center;strokeColor=none;fillColor=#00BEF2;shape=mxgraph.azure.computer;pointerEvents=1;" vertex="1" parent="1">
          <mxGeometry x="175" y="120" width="50" height="45" as="geometry" />
        </mxCell>
        <mxCell id="Je_-mswI8z7TKhdXFUyh-23" value="HTTPS" style="edgeStyle=orthogonalEdgeStyle;rounded=0;orthogonalLoop=1;jettySize=auto;html=1;strokeWidth=3;" edge="1" parent="1" source="Je_-mswI8z7TKhdXFUyh-22">
          <mxGeometry relative="1" as="geometry">
            <mxPoint x="50" y="150" as="targetPoint" />
            <Array as="points">
              <mxPoint x="20" y="393" />
              <mxPoint x="20" y="150" />
            </Array>
          </mxGeometry>
        </mxCell>
        <mxCell id="Je_-mswI8z7TKhdXFUyh-27" value="CIM TC" style="edgeStyle=orthogonalEdgeStyle;rounded=0;orthogonalLoop=1;jettySize=auto;html=1;strokeWidth=3;entryX=0.5;entryY=0;entryDx=0;entryDy=0;entryPerimeter=0;" edge="1" parent="1" source="Je_-mswI8z7TKhdXFUyh-22" target="Je_-mswI8z7TKhdXFUyh-28">
          <mxGeometry relative="1" as="geometry">
            <mxPoint x="105" y="570" as="targetPoint" />
          </mxGeometry>
        </mxCell>
        <mxCell id="Je_-mswI8z7TKhdXFUyh-22" value="CIM/WSL/CS&amp;lt;C#SHELL" style="verticalLabelPosition=bottom;html=1;verticalAlign=top;align=center;strokeColor=none;fillColor=#00BEF2;shape=mxgraph.azure.computer;pointerEvents=1;" vertex="1" parent="1">
          <mxGeometry x="80" y="370" width="50" height="45" as="geometry" />
        </mxCell>
        <mxCell id="Je_-mswI8z7TKhdXFUyh-25" value="" style="edgeStyle=orthogonalEdgeStyle;rounded=0;orthogonalLoop=1;jettySize=auto;html=1;strokeWidth=3;" edge="1" parent="1" source="Je_-mswI8z7TKhdXFUyh-24" target="Je_-mswI8z7TKhdXFUyh-20">
          <mxGeometry relative="1" as="geometry" />
        </mxCell>
        <mxCell id="Je_-mswI8z7TKhdXFUyh-24" value="MERLIN" style="verticalLabelPosition=bottom;html=1;verticalAlign=top;align=center;strokeColor=none;fillColor=#00BEF2;shape=mxgraph.azure.computer;pointerEvents=1;" vertex="1" parent="1">
          <mxGeometry x="50" y="130" width="50" height="45" as="geometry" />
        </mxCell>
        <mxCell id="Je_-mswI8z7TKhdXFUyh-30" style="edgeStyle=orthogonalEdgeStyle;rounded=0;orthogonalLoop=1;jettySize=auto;html=1;entryX=0;entryY=0.5;entryDx=0;entryDy=0;entryPerimeter=0;strokeWidth=3;" edge="1" parent="1" source="Je_-mswI8z7TKhdXFUyh-28" target="Je_-mswI8z7TKhdXFUyh-29">
          <mxGeometry relative="1" as="geometry" />
        </mxCell>
        <mxCell id="Je_-mswI8z7TKhdXFUyh-28" value="USER SQL" style="verticalLabelPosition=bottom;html=1;verticalAlign=top;align=center;strokeColor=none;fillColor=#00BEF2;shape=mxgraph.azure.computer;pointerEvents=1;" vertex="1" parent="1">
          <mxGeometry x="70" y="620" width="50" height="45" as="geometry" />
        </mxCell>
        <mxCell id="Je_-mswI8z7TKhdXFUyh-38" value="DNS OOB" style="edgeStyle=orthogonalEdgeStyle;rounded=0;orthogonalLoop=1;jettySize=auto;html=1;strokeWidth=3;" edge="1" parent="1" source="Je_-mswI8z7TKhdXFUyh-29">
          <mxGeometry relative="1" as="geometry">
            <mxPoint x="310" y="320" as="targetPoint" />
          </mxGeometry>
        </mxCell>
        <mxCell id="Je_-mswI8z7TKhdXFUyh-29" value="SQL SERVER" style="verticalLabelPosition=bottom;html=1;verticalAlign=top;align=center;strokeColor=none;fillColor=#00BEF2;shape=mxgraph.azure.computer;pointerEvents=1;" vertex="1" parent="1">
          <mxGeometry x="300" y="410" width="50" height="45" as="geometry" />
        </mxCell>
        <mxCell id="Je_-mswI8z7TKhdXFUyh-32" style="edgeStyle=orthogonalEdgeStyle;rounded=0;orthogonalLoop=1;jettySize=auto;html=1;strokeWidth=3;" edge="1" parent="1" source="Je_-mswI8z7TKhdXFUyh-31">
          <mxGeometry relative="1" as="geometry">
            <mxPoint x="510" y="330" as="targetPoint" />
            <Array as="points">
              <mxPoint x="150" y="350" />
              <mxPoint x="510" y="350" />
            </Array>
          </mxGeometry>
        </mxCell>
        <mxCell id="Je_-mswI8z7TKhdXFUyh-31" value="[ADSI]" style="text;html=1;strokeColor=none;fillColor=none;align=center;verticalAlign=middle;whiteSpace=wrap;rounded=0;" vertex="1" parent="1">
          <mxGeometry x="120" y="370" width="60" height="30" as="geometry" />
        </mxCell>
        <mxCell id="Je_-mswI8z7TKhdXFUyh-36" value="STOP THE TRAIN!!!!!!!" style="edgeStyle=orthogonalEdgeStyle;rounded=0;orthogonalLoop=1;jettySize=auto;html=1;entryX=0.998;entryY=0.328;entryDx=0;entryDy=0;entryPerimeter=0;strokeWidth=3;" edge="1" parent="1" source="Je_-mswI8z7TKhdXFUyh-33" target="Je_-mswI8z7TKhdXFUyh-12">
          <mxGeometry relative="1" as="geometry" />
        </mxCell>
        <mxCell id="Je_-mswI8z7TKhdXFUyh-33" value="TICERT SERVER" style="verticalLabelPosition=bottom;html=1;verticalAlign=top;align=center;strokeColor=none;fillColor=#00BEF2;shape=mxgraph.azure.computer;pointerEvents=1;" vertex="1" parent="1">
          <mxGeometry x="340" y="250" width="50" height="45" as="geometry" />
        </mxCell>
        <mxCell id="Je_-mswI8z7TKhdXFUyh-34" value="" style="endArrow=none;dashed=1;html=1;rounded=0;strokeWidth=3;" edge="1" parent="1">
          <mxGeometry width="50" height="50" relative="1" as="geometry">
            <mxPoint y="540" as="sourcePoint" />
            <mxPoint x="400" y="540" as="targetPoint" />
          </mxGeometry>
        </mxCell>
        <mxCell id="Je_-mswI8z7TKhdXFUyh-35" value="&lt;b&gt;DISPATCH&lt;/b&gt;" style="text;html=1;strokeColor=none;fillColor=none;align=center;verticalAlign=middle;whiteSpace=wrap;rounded=0;" vertex="1" parent="1">
          <mxGeometry x="590" y="460" width="60" height="30" as="geometry" />
        </mxCell>
        <mxCell id="Je_-mswI8z7TKhdXFUyh-39" value="DISPATCH SERVER&amp;nbsp;" style="verticalLabelPosition=bottom;html=1;verticalAlign=top;align=center;strokeColor=none;fillColor=#00BEF2;shape=mxgraph.azure.computer;pointerEvents=1;" vertex="1" parent="1">
          <mxGeometry x="490" y="480" width="50" height="45" as="geometry" />
        </mxCell>
      </root>
    </mxGraphModel>
  </diagram>
</mxfile>
